<?xml version="1.0" encoding="UTF-8" standalone="no"?>
<!-- Created with Inkscape (http://www.inkscape.org/) -->

<svg
   version="1.1"
   id="svg1"
   width="1496"
   height="1066.6667"
   viewBox="0 0 1496 1066.6667"
   sodipodi:docname="2921037_26664.eps"
   xmlns:inkscape="http://www.inkscape.org/namespaces/inkscape"
   xmlns:sodipodi="http://sodipodi.sourceforge.net/DTD/sodipodi-0.dtd"
   xmlns="http://www.w3.org/2000/svg"
   xmlns:svg="http://www.w3.org/2000/svg">
  <defs
     id="defs1" />
  <sodipodi:namedview
     id="namedview1"
     pagecolor="#ffffff"
     bordercolor="#000000"
     borderopacity="0.25"
     inkscape:showpageshadow="2"
     inkscape:pageopacity="0.0"
     inkscape:pagecheckerboard="0"
     inkscape:deskcolor="#d1d1d1">
    <inkscape:page
       x="0"
       y="0"
       inkscape:label="1"
       id="page1"
       width="1496"
       height="1066.6667"
       margin="0"
       bleed="0" />
  </sodipodi:namedview>
  <g
     id="g1"
     inkscape:groupmode="layer"
     inkscape:label="1">
    <g
       id="group-R5">
      <path
         id="path2"
         d="M 0,0 H 11220 V 8000 H 0 Z"
         style="fill:#ffffff;fill-opacity:1;fill-rule:nonzero;stroke:none"
         transform="matrix(0.13333333,0,0,-0.13333333,0,1066.6667)" />
      <path
         id="path3"
         d="m 3328.34,1038.21 c -455.36,0 -911.45,8.27 -1367.85,28.65 -142.87,6.37 -1031.693,-1.11 -828.53,357.36 56.37,99.44 178.62,137.39 290.07,162.83 473.8,108.16 956.16,144.51 1441.72,144.51 621.51,0 1248.21,-59.57 1868.66,-104.42 74.08,-5.36 148.17,-10.5 222.29,-15.42 111.91,-7.43 223.85,-14.38 335.82,-20.82 711.96,-41.01 1425.08,-62.07 2138.22,-63.18 806.34,-1.25 1603.82,-42.05 2410.82,-72.99 193.24,-7.4 448.94,-14.02 619.74,-99.34 93.6,-46.75 103.9,-139.16 -17.8,-167.28 -86.3,-19.91 -185.2,-25.76 -285.9,-25.76 -124.2,0 -251.05,8.92 -359.79,11.28 -288.26,6.27 -580.81,16.78 -870.12,16.78 -35.87,0 -71.73,-0.17 -107.48,-0.52 C 6983.7,1171.85 5159.38,1038.21 3328.34,1038.21"
         style="fill:#ebebeb;fill-opacity:1;fill-rule:nonzero;stroke:none"
         transform="matrix(0.13333333,0,0,-0.13333333,0,1066.6667)" />
      <path
         id="path4"
         d="m 8682.66,4893.31 -59.82,47.25 -7.58,67.03 -14.82,5.75 -7.52,-18.12 -21.99,53.99 -41.22,22.53 -55.49,-27.5 -27.58,-58.29 33.42,-53.21 65.45,-34.99 79.15,-68.24 58,63.8"
         style="fill:#7b4f34;fill-opacity:1;fill-rule:nonzero;stroke:none"
         transform="matrix(0.13333333,0,0,-0.13333333,0,1066.6667)" />
      <path
         id="path5"
         d="m 8694.25,4942.69 577.33,-489.6 297.59,28.45 112.23,-289.31 -518.17,-68.66 -117.28,59.01 -492.22,651.45 140.52,108.66"
         style="fill:#eec75a;fill-opacity:1;fill-rule:nonzero;stroke:none"
         transform="matrix(0.13333333,0,0,-0.13333333,0,1066.6667)" />
      <path
         id="path6"
         d="m 9571.35,5128.78 c 9.01,17.9 19.51,35.73 35.39,47.95 4.34,3.34 9.05,6.1 13.19,9.52 144.86,119.33 386.77,41.2 384.47,-198.13 -1.2,-128.75 -105.71,-246.42 -226.82,-266.88 -2.14,-33.68 -15.24,-72.5 -19.56,-97.59 -0.9,-5.19 -2.04,-10.84 -5.98,-14.22 -3.49,-2.99 -8.32,-3.42 -12.81,-3.54 -42.3,-1.1 -84.56,14.28 -116.64,42.45 -2.36,2.07 -4.72,4.3 -5.91,7.26 -1.46,3.59 -0.96,7.71 -0.39,11.6 3.96,27.21 10.08,54.1 18.04,80.4 -62.62,35.15 -98.77,107.88 -105.72,180.16 -6.63,69.11 11.51,139.03 42.74,201.02"
         style="fill:#7b4f34;fill-opacity:1;fill-rule:nonzero;stroke:none"
         transform="matrix(0.13333333,0,0,-0.13333333,0,1066.6667)" />
      <path
         id="path7"
         d="m 9649.9,4770.07 c -1.96,-4.31 -4.01,-8.75 -7.53,-11.93 -9.73,-8.81 -25.1,-4.21 -37.12,1.11 -22.17,9.82 -44.29,20.75 -62.25,37.04 -17.97,16.31 -31.54,38.78 -32.35,63.03 -0.29,8.75 1.33,18.11 7.26,24.56 5.92,6.46 17.07,8.55 23.49,2.58 3.6,-3.34 5.05,-8.31 7.26,-12.7 6.02,-11.92 18.01,-19.69 30.27,-24.99 13.54,-5.86 29.6,-9.26 42.76,-2.58 16.55,8.4 22.06,28.72 29.06,45.92 11.97,29.43 53.09,41.41 51.56,1.19 -1.39,-36.77 -37.22,-89.71 -52.41,-123.23"
         style="fill:#333333;fill-opacity:1;fill-rule:nonzero;stroke:none"
         transform="matrix(0.13333333,0,0,-0.13333333,0,1066.6667)" />
      <path
         id="path8"
         d="M 8991.41,1537.13 8932.36,1482 c -38.03,-35.52 -29.32,-99.94 18.37,-120.77 28.11,-12.27 67.7,-10.37 122.46,27.1 l 125.76,143.01 -20.42,46.26 -131.47,19.85 -55.65,-60.32"
         style="fill:#534741;fill-opacity:1;fill-rule:nonzero;stroke:none"
         transform="matrix(0.13333333,0,0,-0.13333333,0,1066.6667)" />
      <path
         id="path9"
         d="m 8922.11,3154.24 -65.95,-891.38 158.48,-694.16 182.48,3.82 83.78,590.46 c 0,0 484.56,786.53 448.35,811.55 -36.21,25.01 -807.14,179.71 -807.14,179.71"
         style="fill:#514943;fill-opacity:1;fill-rule:nonzero;stroke:none"
         transform="matrix(0.13333333,0,0,-0.13333333,0,1066.6667)" />
      <path
         id="path10"
         d="m 10212.9,1494.55 -25.8,-76.55 c -16.6,-49.32 21.6,-101.89 73.5,-97.59 30.5,2.54 64.5,23 94.9,81.96 l 42.8,185.56 -39.9,31.03 -125.1,-44.9 -20.4,-79.51"
         style="fill:#534741;fill-opacity:1;fill-rule:nonzero;stroke:none"
         transform="matrix(0.13333333,0,0,-0.13333333,0,1066.6667)" />
      <path
         id="path11"
         d="m 9384.54,2885.11 364.93,-815.92 468.93,-535.83 158.8,89.95 -206.5,559.5 c 0,0 53.3,922.29 9.6,927.12 -43.7,4.84 -795.76,-224.82 -795.76,-224.82"
         style="fill:#514943;fill-opacity:1;fill-rule:nonzero;stroke:none"
         transform="matrix(0.13333333,0,0,-0.13333333,0,1066.6667)" />
      <path
         id="path12"
         d="m 10136.5,4487.61 c 151.2,-183.92 170.5,-448.73 167.1,-693.3 -3,-216.72 -18.3,-433.38 -45.7,-648.46 -9.8,-76.46 -24.1,-159.05 -78.2,-211.46 -35.6,-34.51 -83.5,-50.6 -130,-64.06 -347.49,-100.46 -717.92,-108.16 -1067.12,-22.19 -38.83,9.57 -79.4,21.43 -107.29,51.31 -20.87,22.37 -32.33,52.48 -41.87,82.26 -95.21,297.11 -44.87,625.19 35.98,928.86 58.23,218.71 135.8,440.1 284.76,605 272.21,301.31 730.44,278.6 982.34,-27.96"
         style="fill:#eec75a;fill-opacity:1;fill-rule:nonzero;stroke:none"
         transform="matrix(0.13333333,0,0,-0.13333333,0,1066.6667)" />
      <path
         id="path13"
         d="m 5465.09,5528.79 c 21.04,23.29 42.07,46.58 63.11,69.86 -1.68,6.97 -2.9,13.9 -3.67,20.61 -14.97,130.93 163.13,515.64 415.96,339.56 229.58,-159.87 -66.3,-382.19 -219.07,-438.69 -31.89,-11.8 -70.24,-21.22 -107.12,-12.63 -19.73,-30.44 -37.42,-62.2 -52.77,-95.06 -31.34,28.66 -62.69,57.33 -94.04,86 -4.92,4.49 -10.23,9.89 -9.99,16.55 0.2,5.36 4,9.82 7.59,13.8"
         style="fill:#fee7de;fill-opacity:1;fill-rule:nonzero;stroke:none"
         transform="matrix(0.13333333,0,0,-0.13333333,0,1066.6667)" />
      <path
         id="path14"
         d="m 5869.66,5559.2 c -48.56,-18.24 -99.56,-29.98 -151.2,-34.8 71.62,56.19 135.48,122.26 189.18,195.77 4.09,5.6 8.9,11.73 15.79,12.64 6.43,0.84 12.39,-3.23 17.45,-7.29 90.38,-72.45 13.44,-134.52 -71.22,-166.32"
         style="fill:#c99a47;fill-opacity:1;fill-rule:nonzero;stroke:none"
         transform="matrix(0.13333333,0,0,-0.13333333,0,1066.6667)" />
      <path
         id="path15"
         d="m 5575.67,5703.6 c -31.29,-2 -51.04,33.22 -57.77,63.84 -27.65,125.78 37.73,266.15 151.82,325.92 95.45,50.02 240.88,-3.38 156.28,-106.79 -30,-36.67 -97.73,-55.27 -133.61,-92.75 -51.27,-53.55 -84.26,-124.52 -116.72,-190.22"
         style="fill:#ddb057;fill-opacity:1;fill-rule:nonzero;stroke:none"
         transform="matrix(0.13333333,0,0,-0.13333333,0,1066.6667)" />
      <path
         id="path16"
         d="m 6182.45,5814.8 c 4.17,-13.21 8.27,-26.79 12.79,-40.92 9.36,-29.27 19.5,-47.74 51.11,-60.07 9.04,-3.53 86.17,-13.71 86.21,3.85 -0.26,-116.38 -130.37,-126.52 -210.69,-148.2 -54.15,-14.6 -113.25,-56.56 -171.55,-37.91 -64.12,20.53 -52.35,79.9 -68.42,132.78 -14.16,46.64 -37.18,90.79 -53.42,136.77 -26.96,76.3 -61.37,194.43 33.13,238.68 110.37,51.67 208.79,-22.74 269.63,-111.98 26.01,-38.13 38.92,-74.03 51.21,-113"
         style="fill:#ddb057;fill-opacity:1;fill-rule:nonzero;stroke:none"
         transform="matrix(0.13333333,0,0,-0.13333333,0,1066.6667)" />
      <path
         id="path17"
         d="m 6444.09,3455.68 123.04,-60.64 36,72.48 -136.4,67.25 -22.64,-79.09"
         style="fill:#edd3b8;fill-opacity:1;fill-rule:nonzero;stroke:none"
         transform="matrix(0.13333333,0,0,-0.13333333,0,1066.6667)" />
      <path
         id="path18"
         d="m 6603.48,3468.54 -33.8,-65.98 0.99,-30.79 40.4,-35.55 146.28,123.15 c -5.07,27.93 -35,43.15 -60.66,30.85 l -8.47,-4.06 -84.74,-17.62"
         style="fill:#4d4d4d;fill-opacity:1;fill-rule:nonzero;stroke:none"
         transform="matrix(0.13333333,0,0,-0.13333333,0,1066.6667)" />
      <path
         id="path19"
         d="m 6206.31,3192.02 104.58,-65.33 42.09,58.56 -115.95,72.45 -30.72,-65.68"
         style="fill:#edd3b8;fill-opacity:1;fill-rule:nonzero;stroke:none"
         transform="matrix(0.13333333,0,0,-0.13333333,0,1066.6667)" />
      <path
         id="path20"
         d="m 6352.98,3185.25 -42.09,-58.56 13.31,-37.96 47.36,-23.52 117.32,144.53 -7.04,10.62 c -13.85,20.86 -45.45,22.69 -63.22,3.65 l -2.84,-3.03 -62.8,-35.73"
         style="fill:#4d4d4d;fill-opacity:1;fill-rule:nonzero;stroke:none"
         transform="matrix(0.13333333,0,0,-0.13333333,0,1066.6667)" />
      <path
         id="path21"
         d="m 5225.6,3935.82 243.62,-247.25 c 123.87,-125.7 261.35,-237.2 409.91,-332.44 l 382.6,-245.25 100.01,153.78 -257.19,196.23 c -132.46,101.06 -243.98,226.94 -328.35,370.61 l -403.92,687.87 -347.53,-221.86 200.85,-361.69"
         style="fill:#516784;fill-opacity:1;fill-rule:nonzero;stroke:none"
         transform="matrix(0.13333333,0,0,-0.13333333,0,1066.6667)" />
      <path
         id="path22"
         d="m 5882.82,4378.4 177.29,-275.68 c 71.92,-111.83 160.5,-212.03 262.65,-297.13 l 296.12,-246.66 -98.99,-172.46 -216.8,141.72 c -251.3,164.29 -483.22,356.47 -691.33,572.87 l -60.39,62.81 -213.3,273.18 272.38,212.34 272.37,-270.99"
         style="fill:#516784;fill-opacity:1;fill-rule:nonzero;stroke:none"
         transform="matrix(0.13333333,0,0,-0.13333333,0,1066.6667)" />
      <path
         id="path23"
         d="m 5484.44,5599.45 c -81.46,76.36 -261.96,-48.86 -327.29,-106 -66.84,-58.47 -119.06,-132.35 -159.24,-211.55 -28.74,-56.63 -51.59,-116.25 -68.07,-177.58 -49.14,-182.95 -30.46,-342.48 4.12,-523.99 16.7,-87.62 34.58,-175.08 55.19,-261.88 14.31,-60.23 32.08,-135.99 59.65,-189.85 139.75,49.72 275.19,133.16 408.66,198.55 65.71,32.2 136.87,65.28 209.1,53.54 43.74,-7.1 86.35,-30.52 129.92,-22.45 31.22,5.77 57.77,27.16 88.9,33.34 63.88,12.68 137.52,-39.25 190.64,-1.59 -7.27,28.32 -35.22,46.72 -63.28,54.94 -28.06,8.22 -57.86,9.04 -85.97,17.1 -86.86,24.9 -139.17,111.04 -181.71,190.76 -81.68,153.06 -161.03,324.31 -124.11,493.83 9.72,44.64 27.34,87.43 34.55,132.54 10.03,62.74 -2.07,128.39 -31.73,184.4 -34.17,64.56 -88.42,88.17 -139.33,135.89"
         style="fill:#ba9bc9;fill-opacity:1;fill-rule:nonzero;stroke:none"
         transform="matrix(0.13333333,0,0,-0.13333333,0,1066.6667)" />
      <path
         id="path24"
         d="m 6216.84,4755.97 -23.2,-74.63 118.84,-52.68 62.94,51.91 -9.58,69.57 -60.82,-11.62 4.34,13.99 18.57,9.53 -9.86,18.46 -101.23,-24.53"
         style="fill:#fee7de;fill-opacity:1;fill-rule:nonzero;stroke:none"
         transform="matrix(0.13333333,0,0,-0.13333333,0,1066.6667)" />
      <path
         id="path25"
         d="m 5489.39,5397.39 308.53,-442.32 450.79,-177.01 -30.34,-115.57 -569.7,119.23 -426.15,542.8 266.87,72.87"
         style="fill:#ba9bc9;fill-opacity:1;fill-rule:nonzero;stroke:none"
         transform="matrix(0.13333333,0,0,-0.13333333,0,1066.6667)" />
      <path
         id="path26"
         d="m 6575.03,5108.14 43.16,-11.37 78.94,299.51 c 7.59,24.74 3.81,79.7 -63.96,115.32 l -165.29,95.04 -22.24,-38.05 166.48,-95.7 c 53.12,-27.75 42.41,-63.29 42.3,-63.65 l -0.33,-1.11 -79.06,-299.99"
         style="fill:#bf494f;fill-opacity:1;fill-rule:nonzero;stroke:none"
         transform="matrix(0.13333333,0,0,-0.13333333,0,1066.6667)" />
      <path
         id="path27"
         d="m 6693.97,5384.16 -0.03,0.01 2.24,8.52 0.04,-0.01 -2.25,-8.52"
         style="fill:#e5e5e5;fill-opacity:1;fill-rule:nonzero;stroke:none"
         transform="matrix(0.13333333,0,0,-0.13333333,0,1066.6667)" />
      <path
         id="path28"
         d="m 6693.94,5384.17 -42.58,13.43 2.25,8.52 42.57,-13.43 -2.24,-8.52"
         style="fill:#ac4247;fill-opacity:1;fill-rule:nonzero;stroke:none"
         transform="matrix(0.13333333,0,0,-0.13333333,0,1066.6667)" />
      <path
         id="path29"
         d="m 6699.81,5412.28 c 0.15,2.81 0.16,5.76 -0.01,8.82 h 0.03 c 0.16,-3.06 0.16,-6.01 0.01,-8.81 l -0.03,-0.01"
         style="fill:#e5e5e5;fill-opacity:1;fill-rule:nonzero;stroke:none"
         transform="matrix(0.13333333,0,0,-0.13333333,0,1066.6667)" />
      <path
         id="path30"
         d="m 6654.77,5410.53 c 0.34,1.63 0.79,4.72 0.59,8.85 l 44.44,1.72 c 0.17,-3.06 0.16,-6.01 0.01,-8.82 l -45.04,-1.75"
         style="fill:#ac4247;fill-opacity:1;fill-rule:nonzero;stroke:none"
         transform="matrix(0.13333333,0,0,-0.13333333,0,1066.6667)" />
      <path
         id="path31"
         d="m 6696.35,5441.3 c -0.81,2.76 -1.76,5.56 -2.87,8.38 l 0.03,0.02 c 1.12,-2.83 2.06,-5.63 2.86,-8.39 l -0.02,-0.01"
         style="fill:#e5e5e5;fill-opacity:1;fill-rule:nonzero;stroke:none"
         transform="matrix(0.13333333,0,0,-0.13333333,0,1066.6667)" />
      <path
         id="path32"
         d="m 6654.81,5424.45 c -0.45,2.64 -1.18,5.53 -2.33,8.61 l 41,16.62 c 1.11,-2.82 2.06,-5.62 2.87,-8.38 l -41.54,-16.85"
         style="fill:#ac4247;fill-opacity:1;fill-rule:nonzero;stroke:none"
         transform="matrix(0.13333333,0,0,-0.13333333,0,1066.6667)" />
      <path
         id="path33"
         d="m 6650.12,5438.4 c -1.27,2.5 -2.84,5.08 -4.75,7.7 l 32.84,29.67 c 1.92,-2.4 3.68,-4.79 5.3,-7.21 l -33.39,-30.16"
         style="fill:#ac4247;fill-opacity:1;fill-rule:nonzero;stroke:none"
         transform="matrix(0.13333333,0,0,-0.13333333,0,1066.6667)" />
      <path
         id="path34"
         d="m 6637.26,5455.33 c -0.95,0.92 -1.95,1.83 -3,2.75 v 0.01 c 1.05,-0.92 2.05,-1.84 3,-2.76 m 19.29,41.45 c -0.46,0.35 -0.93,0.7 -1.4,1.06 v 0 c 0.47,-0.36 0.94,-0.71 1.4,-1.06"
         style="fill:#e5e5e5;fill-opacity:1;fill-rule:nonzero;stroke:none"
         transform="matrix(0.13333333,0,0,-0.13333333,0,1066.6667)" />
      <path
         id="path35"
         d="m 6640.92,5451.58 c -1.13,1.24 -2.35,2.5 -3.66,3.75 -0.95,0.92 -1.95,1.84 -3,2.76 l 20.89,39.75 c 0.47,-0.36 0.94,-0.71 1.4,-1.06 1.98,-1.53 3.87,-3.06 5.69,-4.62 l -21.32,-40.58"
         style="fill:#ac4247;fill-opacity:1;fill-rule:nonzero;stroke:none"
         transform="matrix(0.13333333,0,0,-0.13333333,0,1066.6667)" />
      <path
         id="path36"
         d="m 6146.5,4304.85 170.14,851.46 532.92,-140.46 -275.53,-823.67 c 0,0 -210.53,-9.07 -427.53,112.67"
         style="fill:#bf494f;fill-opacity:1;fill-rule:nonzero;stroke:none"
         transform="matrix(0.13333333,0,0,-0.13333333,0,1066.6667)" />
      <path
         id="path37"
         d="m 6295.61,5222.96 605.11,-159.48 -15.06,-57.14 -605.11,159.49 15.06,57.13"
         style="fill:#e1e0df;fill-opacity:1;fill-rule:nonzero;stroke:none"
         transform="matrix(0.13333333,0,0,-0.13333333,0,1066.6667)" />
      <path
         id="path38"
         d="m 6327.14,5253.76 561.32,-147.93 -9.64,-36.58 -561.32,147.94 9.64,36.57"
         style="fill:#f1f0f0;fill-opacity:1;fill-rule:nonzero;stroke:none"
         transform="matrix(0.13333333,0,0,-0.13333333,0,1066.6667)" />
      <path
         id="path39"
         d="m 6849.56,5015.85 c 0,0 -416.86,91.84 -547.27,68.62 l 14.35,71.84 532.92,-140.46"
         style="fill:#aa434d;fill-opacity:1;fill-rule:nonzero;stroke:none"
         transform="matrix(0.13333333,0,0,-0.13333333,0,1066.6667)" />
      <path
         id="path40"
         d="m 6574.03,4192.18 c 0,0 -210.53,-9.07 -427.53,112.67 l 129.18,646.48 c 19.1,-618.77 298.35,-759.15 298.35,-759.15"
         style="fill:#aa434d;fill-opacity:1;fill-rule:nonzero;stroke:none"
         transform="matrix(0.13333333,0,0,-0.13333333,0,1066.6667)" />
      <path
         id="path41"
         d="m 6190.11,4571.4 70.68,359.32 526.18,-138.67 -117.33,-347.04 -479.53,126.39"
         style="fill:#a7cfd8;fill-opacity:1;fill-rule:nonzero;stroke:none"
         transform="matrix(0.13333333,0,0,-0.13333333,0,1066.6667)" />
      <path
         id="path42"
         d="m 6369.19,4524.21 -179.08,47.19 70.68,359.32 c 0,0 -9.14,-234.71 108.4,-406.51"
         style="fill:#9dc3cb;fill-opacity:1;fill-rule:nonzero;stroke:none"
         transform="matrix(0.13333333,0,0,-0.13333333,0,1066.6667)" />
      <path
         id="path43"
         d="m 6659.5,4447.69 -460.21,121.29 -7.61,-38.05 z"
         style="fill:#aa434d;fill-opacity:1;fill-rule:nonzero;stroke:none"
         transform="matrix(0.13333333,0,0,-0.13333333,0,1066.6667)" />
      <path
         id="path44"
         d="m 6327.14,5253.76 -9.64,-36.57 264.88,-69.81 c 0,0 -222.9,59.54 -255.24,106.38"
         style="fill:#d8d5d3;fill-opacity:1;fill-rule:nonzero;stroke:none"
         transform="matrix(0.13333333,0,0,-0.13333333,0,1066.6667)" />
      <path
         id="path45"
         d="m 6464.6,5101.6 2.84,-78.11 129.58,-10.34 42.19,69.83 -32.09,62.47 -53.54,-31.11 -0.52,14.64 14.35,15.14 -15.42,14.15 -87.39,-56.67"
         style="fill:#fee7de;fill-opacity:1;fill-rule:nonzero;stroke:none"
         transform="matrix(0.13333333,0,0,-0.13333333,0,1066.6667)" />
      <path
         id="path46"
         d="m 5565.75,5465.83 437.63,-315.15 483.98,-17.69 9.65,-119.09 -577.02,-76.22 -581.9,370.99 227.66,157.16"
         style="fill:#ba9bc9;fill-opacity:1;fill-rule:nonzero;stroke:none"
         transform="matrix(0.13333333,0,0,-0.13333333,0,1066.6667)" />
      <path
         id="path47"
         d="m 3589.16,4634.86 c -221.62,19.34 -405.45,-29.46 -615.6,-293.8 351,99.34 738.94,-9.72 1041.89,-201.18 302.96,-191.46 630.85,-386.27 873.24,-640.87 242.38,-254.61 420.42,-540.68 741.6,-725.69 528.54,-304.45 1217.83,-263.66 1785.54,-25.44 256.09,107.45 431.48,317.39 710.87,383.66 165.57,39.28 342.07,27.58 503.58,-21.34 175.57,-53.17 333.24,-147.09 500.13,-218.33 152.5,-65.07 308.45,-123.45 467.13,-174.93 25.59,-8.3 75.04,-34.52 97.88,-20.52 18.93,11.6 28.5,81.33 33.89,101.29 5.08,18.82 48.9,213.4 33.12,216.82 -355.43,76.93 -641.19,323.12 -987.06,430.99 -326.6,101.87 -699.3,69.86 -999.95,-85.89 -133.87,-69.36 -252.66,-161.14 -384.46,-233.79 -540.78,-298.07 -1302.67,-212.04 -1731.94,213.5 -99.48,98.63 -180.75,211.43 -270.37,317.82 -490.62,582.4 -1003.98,908.29 -1799.49,977.7"
         style="fill:#333333;fill-opacity:1;fill-rule:nonzero;stroke:none"
         transform="matrix(0.13333333,0,0,-0.13333333,0,1066.6667)" />
      <path
         id="path48"
         d="m 921.711,3341.29 128.189,-922.19 -45.52,-666.2 93.36,-32.56 83.57,615.59 178.34,1124.92 -437.939,-119.56"
         style="fill:#ebceb1;fill-opacity:1;fill-rule:nonzero;stroke:none"
         transform="matrix(0.13333333,0,0,-0.13333333,0,1066.6667)" />
      <path
         id="path49"
         d="m 1097.54,1701.55 10.31,-69.01 -23.42,-131.18 -77.08,7.29 -14.514,194.31 11.344,31.16 93.36,-32.57"
         style="fill:#514943;fill-opacity:1;fill-rule:nonzero;stroke:none"
         transform="matrix(0.13333333,0,0,-0.13333333,0,1066.6667)" />
      <path
         id="path50"
         d="m 1677.07,3368.71 -41.21,-782.16 -174.31,-1093.45 -94.48,1.27 42,1013.83 -122.54,934.63 390.54,-74.12"
         style="fill:#ebceb1;fill-opacity:1;fill-rule:nonzero;stroke:none"
         transform="matrix(0.13333333,0,0,-0.13333333,0,1066.6667)" />
      <path
         id="path51"
         d="m 1459.99,1511.81 120.75,-88.53 -15.07,-66.14 -221.08,52.69 17.98,95.55 97.42,6.43"
         style="fill:#514943;fill-opacity:1;fill-rule:nonzero;stroke:none"
         transform="matrix(0.13333333,0,0,-0.13333333,0,1066.6667)" />
      <path
         id="path52"
         d="m 1697.9,3251.48 -3.94,-907.89 -111.09,-612.15 -253.1,40.97 7.36,707.47 -99.12,747.03 72.61,147.82 366.08,-41.57 21.2,-81.68"
         style="fill:#c7b299;fill-opacity:1;fill-rule:nonzero;stroke:none"
         transform="matrix(0.13333333,0,0,-0.13333333,0,1066.6667)" />
      <path
         id="path53"
         d="m 1248.8,2466.52 -78.35,-643.9 -220.102,34.26 -33.614,554.11 -77.121,740.32 82.098,135.35 382.999,-35.61 -55.91,-784.53"
         style="fill:#c7b299;fill-opacity:1;fill-rule:nonzero;stroke:none"
         transform="matrix(0.13333333,0,0,-0.13333333,0,1066.6667)" />
      <path
         id="path54"
         d="m 824.773,4922.31 c 16.86,159.82 220.077,257.87 306.827,94.97 26.07,-48.95 46.85,-102.36 48.03,-157.9 1.17,-55.53 -19.99,-113.61 -64.24,-145.98 l -0.78,-0.51 c 4.86,-13.44 9.73,-26.88 14.58,-40.33 1.04,-2.88 2.09,-6.1 0.98,-8.94 -1.27,-3.24 -4.83,-4.79 -8.05,-6.01 -15.72,-5.95 -31.44,-11.91 -47.17,-17.86 -7.79,-2.96 -15.93,-5.96 -24.22,-5.1 -18.15,1.88 -29.61,21.06 -34.21,39.02 -1.09,4.29 -1.98,8.68 -2.86,13.08 -103.285,12.85 -199.898,131.09 -188.887,235.56"
         style="fill:#eacdb0;fill-opacity:1;fill-rule:nonzero;stroke:none"
         transform="matrix(0.13333333,0,0,-0.13333333,0,1066.6667)" />
      <path
         id="path55"
         d="m 1136.44,4969.57 c 30.15,-35.29 36.06,-83.21 36.67,-128.07 0.6,-43.87 11.79,-85.13 8.35,-129.19 5.58,-5.95 15.1,0.02 20.72,5.88 32.93,34.35 65.39,69.17 97.37,104.44 3.21,3.54 6.51,7.24 8.01,11.82 1.9,5.81 0.64,12.16 -0.72,18.14 -27,118.04 -87.03,198.06 -168.35,281.98 -39.48,40.75 -133.99,77.98 -174.834,15.85 -9.297,-14.15 -10.734,-32.07 -11.093,-49.11 -0.215,-10.18 -0.086,-20.66 3.667,-30.12 14.969,-37.72 51.23,-29.94 81.81,-38.05 37.71,-10.01 72.95,-33.8 98.4,-63.57"
         style="fill:#333333;fill-opacity:1;fill-rule:nonzero;stroke:none"
         transform="matrix(0.13333333,0,0,-0.13333333,0,1066.6667)" />
      <path
         id="path56"
         d="m 876.406,4849.15 c 5.278,-34.4 19.313,-72.23 34.614,-103.17 5.296,-10.71 30.906,-33.59 32.75,-41.11 5.335,-21.79 -32.125,-80.66 -40.993,-101.78 -77.101,28.53 -154.207,57.05 -231.312,85.58 -5.906,2.18 -12.11,4.57 -16.106,9.51 -3.625,4.48 -4.89,10.41 -5.968,16.1 -21.25,111.82 -7.828,217.34 19.41,325.64 27.219,108.25 110.597,205.63 224.847,215.94 92.309,8.32 166.622,-49.3 147.662,-148.64 -14.31,-74.99 -100.474,-103.65 -141.173,-159.64 -25.551,-35.15 -29.551,-66.77 -23.731,-98.43"
         style="fill:#333333;fill-opacity:1;fill-rule:nonzero;stroke:none"
         transform="matrix(0.13333333,0,0,-0.13333333,0,1066.6667)" />
      <path
         id="path57"
         d="m 924.98,4622.26 c -1.761,-0.9 -3.511,-1.82 -5.246,-2.75 -82.98,-44.36 -133.226,-200.01 -161.75,-291.34 -73.644,-235.76 -89.211,-473.19 -66.91,-719.75 12.008,-132.77 29.981,-264.95 50.668,-396.63 5.719,-36.39 78.996,-359.11 63.156,-369.19 162.465,103.38 328.372,202.69 506.202,273.16 177.84,70.48 369.93,8.1 560.42,-8.59 -107.67,407.68 -242.49,922.64 -409.87,1308.03 -20.03,46.09 -35.77,95.99 -62.27,138.66 -30.53,49.14 -68.54,59.74 -117.98,84.56 -16.94,8.5 -34,17.05 -52.09,22.14 -95.37,26.79 -216.71,6.8 -304.33,-38.3"
         style="fill:#8bb29f;fill-opacity:1;fill-rule:nonzero;stroke:none"
         transform="matrix(0.13333333,0,0,-0.13333333,0,1066.6667)" />
      <path
         id="path58"
         d="m 1911.82,5049.69 20.06,125.95 -53.37,10.01 -32.81,-83.53 -22.84,16.47 -4.06,-109.64 53.95,-17.91 39.07,58.65"
         style="fill:#ebceb1;fill-opacity:1;fill-rule:nonzero;stroke:none"
         transform="matrix(0.13333333,0,0,-0.13333333,0,1066.6667)" />
      <path
         id="path59"
         d="m 993.656,4256.43 c 0.66,10.13 2.938,20.82 7.034,31.93 17.01,46.11 55.25,82.2 98.15,106.39 67.92,38.3 148.35,55.49 220.14,85.87 82.12,34.74 164.24,69.48 246.37,104.23 l 242.37,461.47 105.14,-41.03 -186.19,-612.77 c -111.25,-40.83 -220.12,-80.29 -328.01,-127.77 -96.73,-42.57 -192.16,-108.3 -301.48,-105.01 -61.72,1.86 -107.125,40.97 -103.524,96.69"
         style="fill:#8bb29f;fill-opacity:1;fill-rule:nonzero;stroke:none"
         transform="matrix(0.13333333,0,0,-0.13333333,0,1066.6667)" />
      <path
         id="path60"
         d="m 4323.34,4657.25 c 706.88,-378.98 972.69,-1259.25 593.7,-1966.13 -378.99,-706.87 -1259.26,-972.68 -1966.13,-593.7 -706.88,379 -972.68,1259.26 -593.7,1966.13 378.99,706.88 1259.25,972.69 1966.13,593.7"
         style="fill:#333333;fill-opacity:1;fill-rule:nonzero;stroke:none"
         transform="matrix(0.13333333,0,0,-0.13333333,0,1066.6667)" />
      <path
         id="path61"
         d="m 4186.53,4402.07 c 565.94,-303.43 778.75,-1008.19 475.33,-1574.13 -303.43,-565.95 -1008.19,-778.75 -1574.14,-475.33 -565.94,303.43 -778.75,1008.19 -475.32,1574.13 303.43,565.94 1008.19,778.75 1574.13,475.33"
         style="fill:#424547;fill-opacity:1;fill-rule:nonzero;stroke:none"
         transform="matrix(0.13333333,0,0,-0.13333333,0,1066.6667)" />
      <path
         id="path62"
         d="m 5329.44,2862.76 -1008.9,569.92 c -42.45,23.98 -42.24,92.32 0.36,115.09 l 1012.4,541.25 c 46.58,24.91 102.53,-0.16 121.65,-54.56 55.23,-157.26 86.78,-323.9 93.1,-492.96 8.05,-215.35 -25.04,-429.32 -96.59,-627.49 -19.46,-53.91 -75.56,-77.5 -122.02,-51.25 z m -0.19,-306.57 c -66.03,-141.47 -154.93,-272.18 -263.15,-386.46 -137.85,-145.6 -303.65,-260.99 -485.91,-338.73 -49.58,-21.16 -104.67,3.49 -119.78,53.63 l -328.23,1088.76 c -13.81,45.82 31.88,90.05 76.96,74.49 l 1071.11,-369.61 c 49.28,-17 71.84,-73.13 49,-122.08 z M 4245.95,1671.7 c -197.98,-72.06 -411.86,-105.71 -627.24,-98.22 -169.07,5.87 -335.79,36.99 -493.2,91.81 -54.45,18.97 -79.66,74.86 -54.88,121.5 l 538.61,1013.81 c 22.66,42.66 91,43.05 115.1,0.66 l 572.54,-1007.4 c 26.37,-46.4 2.93,-102.56 -50.93,-122.16 z m -1502.52,181.78 c -173.64,89.15 -327.78,214.34 -451.67,367.44 -97.25,120.17 -174,255.23 -227.19,399.36 -18.4,49.87 8.74,103.73 58.95,117.16 l 1091.36,291.77 c 45.93,12.27 87.33,-34.49 69.74,-78.77 l -418.09,-1052.2 c -19.25,-48.45 -75.86,-69.02 -123.1,-44.76 z m -764.7,1060.53 c -71.54,198.17 -104.64,412.14 -96.59,627.49 6.32,169.06 37.87,335.7 93.11,492.96 19.11,54.4 75.07,79.47 121.64,54.56 l 1012.4,-541.25 c 42.6,-22.77 42.82,-91.11 0.36,-115.09 L 2100.76,2862.76 c -46.46,-26.25 -102.57,-2.66 -122.03,51.25 z m 116.81,1460.86 c 92.69,171.78 221,323.33 376.6,444.06 122.14,94.78 258.74,168.75 403.93,218.98 50.23,17.38 103.53,-10.85 115.93,-61.33 l 269.39,-1097.1 c 11.34,-46.16 -36.27,-86.61 -80.17,-68.11 l -1043.43,439.51 c -48.06,20.24 -67.46,77.25 -42.25,123.99 z m 1045.47,776.29 c 157.12,55.65 323.68,87.63 492.72,94.39 215.32,8.62 429.38,-23.92 627.73,-94.94 53.97,-19.33 77.7,-75.37 51.58,-121.9 L 3745.76,4018.33 c -23.88,-42.51 -92.22,-42.48 -115.11,0.06 l -543.89,1010.98 c -25.02,46.52 -0.1,102.54 54.25,121.79 z M 3525.12,3587.3 c -32.06,-30.62 -82.88,-29.46 -113.5,2.6 -30.63,32.06 -29.47,82.87 2.59,113.5 32.06,30.63 82.88,29.47 113.5,-2.59 30.63,-32.06 29.47,-82.88 -2.59,-113.51 z m -158.73,-247.12 c -44.31,1.45 -79.05,38.57 -77.59,82.88 1.46,44.31 38.58,79.05 82.89,77.58 44.31,-1.46 79.05,-38.57 77.59,-82.89 -1.47,-44.3 -38.58,-79.04 -82.89,-77.57 z m 40.24,-102.69 c 31.51,31.18 82.34,30.9 113.53,-0.62 31.18,-31.53 30.9,-82.36 -0.62,-113.53 -31.53,-31.18 -82.36,-30.91 -113.54,0.62 -31.18,31.52 -30.9,82.35 0.63,113.53 z m 368.49,-153.82 c 0,-44.33 -35.95,-80.28 -80.28,-80.28 -44.34,0 -80.28,35.95 -80.28,80.28 0,44.34 35.94,80.29 80.28,80.29 44.33,0 80.28,-35.95 80.28,-80.29 z m -80.28,571.67 c -44.34,0 -80.28,35.95 -80.28,80.28 0,44.34 35.94,80.28 80.28,80.28 44.33,0 80.28,-35.94 80.28,-80.28 0,-44.33 -35.95,-80.28 -80.28,-80.28 z m 245.56,-253.81 c 1.46,44.32 38.57,79.06 82.89,77.59 44.31,-1.46 79.04,-38.57 77.58,-82.89 -1.46,-44.31 -38.57,-79.04 -82.89,-77.59 -44.31,1.47 -79.04,38.58 -77.58,82.89 z m -70.26,294.43 c 31.52,31.18 82.36,30.9 113.53,-0.63 31.18,-31.52 30.91,-82.35 -0.62,-113.52 -31.52,-31.19 -82.35,-30.91 -113.53,0.61 -31.18,31.53 -30.9,82.36 0.62,113.54 z m -5.58,-463.97 c 32.06,30.63 82.87,29.47 113.5,-2.6 30.63,-32.06 29.46,-82.88 -2.6,-113.5 -32.06,-30.63 -82.87,-29.46 -113.5,2.6 -30.63,32.06 -29.46,82.87 2.6,113.5 z m 689.18,1765.56 c 138.82,-58.64 267.21,-140.21 379.63,-241.46 143.23,-128.98 257.03,-286.73 334.07,-462.28 20.96,-47.76 -2.88,-102.92 -51.88,-119.96 L 4151.59,3803.92 c -44.78,-15.57 -88.31,27.36 -73.32,72.29 l 356.23,1067.88 c 16.38,49.13 71.21,73.75 119.24,53.46 z m -858.9,423.19 c -1126.59,0 -2039.87,-897.83 -2039.87,-2005.37 0,-1107.53 913.28,-2005.36 2039.87,-2005.36 1126.59,0 2039.87,897.83 2039.87,2005.36 0,1107.54 -913.28,2005.37 -2039.87,2005.37"
         style="fill:#b4bcc1;fill-opacity:1;fill-rule:nonzero;stroke:none"
         transform="matrix(0.13333333,0,0,-0.13333333,0,1066.6667)" />
      <path
         id="path63"
         d="m 2125.14,4106 117.17,50.35 -20.06,50.46 -88.13,-16.92 1.71,28.12 -94.84,-55.17 13.7,-55.17 70.45,-1.67"
         style="fill:#ebceb1;fill-opacity:1;fill-rule:nonzero;stroke:none"
         transform="matrix(0.13333333,0,0,-0.13333333,0,1066.6667)" />
      <path
         id="path64"
         d="m 963.977,4458.1 c 8.914,4.86 19.168,8.65 30.75,11.13 48.053,10.26 98.993,-2.77 142.363,-26.11 68.68,-36.94 126.19,-95.73 190.23,-140.18 73.26,-50.84 146.51,-101.68 219.76,-152.52 l 519.59,41.76 21.5,-110.79 -617.44,-170.11 c -93.95,72.22 -185.49,143.13 -283.28,208.96 -87.67,59 -194.231,104.54 -249.868,198.69 -31.422,53.16 -22.625,112.44 26.395,139.17"
         style="fill:#8bb29f;fill-opacity:1;fill-rule:nonzero;stroke:none"
         transform="matrix(0.13333333,0,0,-0.13333333,0,1066.6667)" />
      <path
         id="path65"
         d="m 9159.03,6073.16 -1667.56,204.3 -135.96,-1109.87 1667.55,-204.3 135.97,1109.87"
         style="fill:#5a595c;fill-opacity:1;fill-rule:nonzero;stroke:none"
         transform="matrix(0.13333333,0,0,-0.13333333,0,1066.6667)" />
      <path
         id="path66"
         d="m 9188.08,6267.66 -1672.69,204.93 -23.92,-195.13 1672.7,-204.93 23.91,195.13"
         style="fill:#5a595c;fill-opacity:1;fill-rule:nonzero;stroke:none"
         transform="matrix(0.13333333,0,0,-0.13333333,0,1066.6667)" />
      <path
         id="path67"
         d="m 8965.88,6096.82 198.29,-24.29 23.91,195.13 -3.17,0.39 -219.03,-171.23"
         style="fill:#e5e5e6;fill-opacity:1;fill-rule:nonzero;stroke:none"
         transform="matrix(0.13333333,0,0,-0.13333333,0,1066.6667)" />
      <path
         id="path68"
         d="m 7515.39,6472.59 -20.23,-165.14 185.37,144.91 z"
         style="fill:#e5e5e6;fill-opacity:1;fill-rule:nonzero;stroke:none"
         transform="matrix(0.13333333,0,0,-0.13333333,0,1066.6667)" />
      <path
         id="path69"
         d="m 7977,6416.04 -219.04,-171.23 307.49,-37.67 219.03,171.22 -307.48,37.68"
         style="fill:#e5e5e6;fill-opacity:1;fill-rule:nonzero;stroke:none"
         transform="matrix(0.13333333,0,0,-0.13333333,0,1066.6667)" />
      <path
         id="path70"
         d="m 8580.96,6342.04 -219.04,-171.22 307.48,-37.68 219.04,171.23 -307.48,37.67"
         style="fill:#e5e5e6;fill-opacity:1;fill-rule:nonzero;stroke:none"
         transform="matrix(0.13333333,0,0,-0.13333333,0,1066.6667)" />
      <path
         id="path71"
         d="m 7680.53,6452.36 -185.37,-144.91 -3.69,-29.99 266.49,-32.65 219.04,171.23 -296.47,36.32"
         style="fill:#434244;fill-opacity:1;fill-rule:nonzero;stroke:none"
         transform="matrix(0.13333333,0,0,-0.13333333,0,1066.6667)" />
      <path
         id="path72"
         d="m 8284.48,6378.36 -219.03,-171.22 296.47,-36.32 219.04,171.22 -296.48,36.32"
         style="fill:#434244;fill-opacity:1;fill-rule:nonzero;stroke:none"
         transform="matrix(0.13333333,0,0,-0.13333333,0,1066.6667)" />
      <path
         id="path73"
         d="m 8888.44,6304.37 -219.04,-171.23 296.48,-36.32 219.03,171.23 -296.47,36.32"
         style="fill:#434244;fill-opacity:1;fill-rule:nonzero;stroke:none"
         transform="matrix(0.13333333,0,0,-0.13333333,0,1066.6667)" />
      <path
         id="path74"
         d="m 7714.86,6496.25 -198.39,-23.52 -23.14,195.23 3.16,0.37 218.37,-172.08"
         style="fill:#e5e5e6;fill-opacity:1;fill-rule:nonzero;stroke:none"
         transform="matrix(0.13333333,0,0,-0.13333333,0,1066.6667)" />
      <path
         id="path75"
         d="m 9166.81,6866.37 19.59,-165.22 -184.82,145.63 z"
         style="fill:#e5e5e6;fill-opacity:1;fill-rule:nonzero;stroke:none"
         transform="matrix(0.13333333,0,0,-0.13333333,0,1066.6667)" />
      <path
         id="path76"
         d="m 8704.97,6811.61 218.37,-172.08 -307.63,-36.47 -218.37,172.08 307.63,36.47"
         style="fill:#e5e5e6;fill-opacity:1;fill-rule:nonzero;stroke:none"
         transform="matrix(0.13333333,0,0,-0.13333333,0,1066.6667)" />
      <path
         id="path77"
         d="m 8100.73,6739.97 218.37,-172.07 -307.63,-36.48 -218.36,172.08 307.62,36.47"
         style="fill:#e5e5e6;fill-opacity:1;fill-rule:nonzero;stroke:none"
         transform="matrix(0.13333333,0,0,-0.13333333,0,1066.6667)" />
      <path
         id="path78"
         d="m 9001.58,6846.78 184.82,-145.63 3.55,-30.01 -266.61,-31.61 -218.37,172.08 296.61,35.17"
         style="fill:#434244;fill-opacity:1;fill-rule:nonzero;stroke:none"
         transform="matrix(0.13333333,0,0,-0.13333333,0,1066.6667)" />
      <path
         id="path79"
         d="m 8397.34,6775.14 218.37,-172.08 -296.61,-35.16 -218.37,172.07 296.61,35.17"
         style="fill:#434244;fill-opacity:1;fill-rule:nonzero;stroke:none"
         transform="matrix(0.13333333,0,0,-0.13333333,0,1066.6667)" />
      <path
         id="path80"
         d="m 7793.11,6703.5 218.36,-172.08 -296.61,-35.17 -218.37,172.08 296.62,35.17"
         style="fill:#434244;fill-opacity:1;fill-rule:nonzero;stroke:none"
         transform="matrix(0.13333333,0,0,-0.13333333,0,1066.6667)" />
      <path
         id="path81"
         d="m 7491.47,6277.46 1.86,390.21 198.37,23.58 202.86,-463.17 -403.09,49.38"
         style="fill:#434244;fill-opacity:1;fill-rule:nonzero;stroke:none"
         transform="matrix(0.13333333,0,0,-0.13333333,0,1066.6667)" />
      <path
         id="path82"
         d="m 7691.7,6691.25 147.23,-180.29 -65.82,-5.58 z"
         style="fill:#262425;fill-opacity:1;fill-rule:nonzero;stroke:none"
         transform="matrix(0.13333333,0,0,-0.13333333,0,1066.6667)" />
      <path
         id="path83"
         d="m 7802.9,6437.37 150.2,-216.47 -58.54,7.18 z"
         style="fill:#262425;fill-opacity:1;fill-rule:nonzero;stroke:none"
         transform="matrix(0.13333333,0,0,-0.13333333,0,1066.6667)" />
      <path
         id="path84"
         d="m 7640.79,6588.21 c -1.39,-14.64 -14.37,-25.37 -29.01,-23.99 -14.63,1.39 -25.37,14.38 -23.99,29.01 1.39,14.64 14.38,25.37 29.01,23.99 14.64,-1.39 25.38,-14.38 23.99,-29.01"
         style="fill:#a4a7a9;fill-opacity:1;fill-rule:nonzero;stroke:none"
         transform="matrix(0.13333333,0,0,-0.13333333,0,1066.6667)" />
      <path
         id="path85"
         d="m 7592,6355.58 c -1.38,-14.64 -14.37,-25.37 -29.01,-23.99 -14.63,1.39 -25.37,14.38 -23.99,29.01 1.39,14.63 14.38,25.38 29.02,23.99 14.63,-1.39 25.37,-14.38 23.98,-29.01"
         style="fill:#a4a7a9;fill-opacity:1;fill-rule:nonzero;stroke:none"
         transform="matrix(0.13333333,0,0,-0.13333333,0,1066.6667)" />
      <path
         id="path86"
         d="m 7787.41,6337.06 c -1.38,-14.64 -14.37,-25.38 -29.01,-23.99 -14.63,1.39 -25.37,14.38 -23.99,29.01 1.39,14.63 14.38,25.37 29.02,23.98 14.63,-1.38 25.37,-14.37 23.98,-29"
         style="fill:#a4a7a9;fill-opacity:1;fill-rule:nonzero;stroke:none"
         transform="matrix(0.13333333,0,0,-0.13333333,0,1066.6667)" />
      <path
         id="path87"
         d="m 8975.44,5201.61 -1516.19,185.75 1.38,11.3 1516.2,-185.76 -1.39,-11.29"
         style="fill:#e5e5e6;fill-opacity:1;fill-rule:nonzero;stroke:none"
         transform="matrix(0.13333333,0,0,-0.13333333,0,1066.6667)" />
      <path
         id="path88"
         d="m 7947.81,5319.86 -22.57,-184.18 -12.45,1.53 22.56,184.18 12.46,-1.53"
         style="fill:#e5e5e6;fill-opacity:1;fill-rule:nonzero;stroke:none"
         transform="matrix(0.13333333,0,0,-0.13333333,0,1066.6667)" />
      <path
         id="path89"
         d="m 8497.49,5252.51 -22.57,-184.17 -12.45,1.53 22.56,184.17 12.46,-1.53"
         style="fill:#e5e5e6;fill-opacity:1;fill-rule:nonzero;stroke:none"
         transform="matrix(0.13333333,0,0,-0.13333333,0,1066.6667)" />
      <path
         id="path90"
         d="m 9062.11,5909 -1516.2,185.76 1.53,12.46 1516.19,-185.76 -1.52,-12.46"
         style="fill:#e5e5e6;fill-opacity:1;fill-rule:nonzero;stroke:none"
         transform="matrix(0.13333333,0,0,-0.13333333,0,1066.6667)" />
      <path
         id="path91"
         d="m 2807.68,6127.65 c 10.06,16.99 15.88,36.79 15.99,57.97 0.21,41.22 -21.28,77.47 -53.74,97.98 1.18,5.63 1.81,11.46 1.85,17.44 0.24,47.97 -38.45,87.05 -86.42,87.29 -4.59,0.02 -9.1,-0.32 -13.49,-0.98 -20.8,42.07 -64.01,71.12 -114.14,71.38 -28.29,0.14 -54.47,-8.93 -75.74,-24.37 0.82,5.43 1.27,10.99 1.3,16.64 0.32,63.6 -50.98,115.42 -114.58,115.74 -45.47,0.23 -84.9,-25.93 -103.81,-64.1 -24.24,24.23 -57.57,39.27 -94.45,39.46 -26.88,0.14 -51.97,-7.65 -73.08,-21.17 -20.8,28.7 -54.52,47.45 -92.69,47.64 -45.85,0.23 -85.57,-26.36 -104.29,-65.05 -8.17,2.59 -16.87,4.02 -25.9,4.06 -47.97,0.24 -87.05,-38.44 -87.29,-86.41 -0.04,-6.88 0.75,-13.56 2.23,-19.99 -18.4,12.69 -40.68,20.18 -64.71,20.3 -63.6,0.32 -115.42,-50.98 -115.74,-114.58 -0.09,-16.77 3.45,-32.7 9.82,-47.11 -45.12,-15.41 -77.68,-58.02 -77.93,-108.39 -0.03,-5.9 0.39,-11.7 1.22,-17.37 l 1265.59,-6.38"
         style="fill:#eec75a;fill-opacity:1;fill-rule:nonzero;stroke:none"
         transform="matrix(0.13333333,0,0,-0.13333333,0,1066.6667)" />
      <path
         id="path92"
         d="m 2803.86,6121.64 c 12.39,18.25 19.69,40.25 19.81,63.98 0.18,36.43 -16.59,68.97 -42.9,90.21 -319.24,-125.83 -1030,-125.49 -1030,-125.49 l -2.88,-23.38 1055.97,-5.32"
         style="fill:#e9b63a;fill-opacity:1;fill-rule:nonzero;stroke:none"
         transform="matrix(0.13333333,0,0,-0.13333333,0,1066.6667)" />
      <path
         id="path93"
         d="m 1765.56,6103.76 61.04,-1162.02 c 30.46,-4.51 63.79,-8.96 99.52,-13.02 l -34.55,1174.4 -126.01,0.64"
         style="fill:#c02020;fill-opacity:1;fill-rule:nonzero;stroke:none"
         transform="matrix(0.13333333,0,0,-0.13333333,0,1066.6667)" />
      <path
         id="path94"
         d="m 2232.74,6101.41 -6,-1190.76 c 33.94,-0.11 68.54,0.47 103.56,1.91 l 46.95,1188.12 -144.51,0.73"
         style="fill:#c02020;fill-opacity:1;fill-rule:nonzero;stroke:none"
         transform="matrix(0.13333333,0,0,-0.13333333,0,1066.6667)" />
      <path
         id="path95"
         d="M 1551.97,6104.84 1632.5,4978 c 0,0 35.44,-8.8 96.31,-20.03 l -60.21,1146.28 -116.63,0.59"
         style="fill:#c02020;fill-opacity:1;fill-rule:nonzero;stroke:none"
         transform="matrix(0.13333333,0,0,-0.13333333,0,1066.6667)" />
      <path
         id="path96"
         d="m 1988.42,6102.64 34.81,-1183.33 c 34.23,-2.74 69.91,-4.97 106.72,-6.49 l 6,1189.07 -147.53,0.75"
         style="fill:#c02020;fill-opacity:1;fill-rule:nonzero;stroke:none"
         transform="matrix(0.13333333,0,0,-0.13333333,0,1066.6667)" />
      <path
         id="path97"
         d="m 2816.72,6098.46 -116.63,0.59 -72.15,-1151.58 c 34.63,7.1 69.05,15.38 103.05,24.99 l 85.73,1126"
         style="fill:#c02020;fill-opacity:1;fill-rule:nonzero;stroke:none"
         transform="matrix(0.13333333,0,0,-0.13333333,0,1066.6667)" />
      <path
         id="path98"
         d="m 2474.11,6100.19 -46.69,-1181.45 c 34.03,2.97 68.25,6.84 102.47,11.74 l 73.24,1169.06 -129.02,0.65"
         style="fill:#c02020;fill-opacity:1;fill-rule:nonzero;stroke:none"
         transform="matrix(0.13333333,0,0,-0.13333333,0,1066.6667)" />
      <path
         id="path99"
         d="m 2135.95,6101.89 -6,-1189.07 c 31.51,-1.29 63.84,-2.06 96.79,-2.17 l 6,1190.76 -96.79,0.48"
         style="fill:#f0efef;fill-opacity:1;fill-rule:nonzero;stroke:none"
         transform="matrix(0.13333333,0,0,-0.13333333,0,1066.6667)" />
      <path
         id="path100"
         d="m 1668.6,6104.25 60.21,-1146.28 c 27.66,-5.1 60.57,-10.71 97.79,-16.23 l -61.04,1162.02 -96.96,0.49"
         style="fill:#f0efef;fill-opacity:1;fill-rule:nonzero;stroke:none"
         transform="matrix(0.13333333,0,0,-0.13333333,0,1066.6667)" />
      <path
         id="path101"
         d="m 1891.57,6103.12 34.55,-1174.4 c 30.72,-3.5 63.2,-6.7 97.11,-9.41 l -34.81,1183.33 -96.85,0.48"
         style="fill:#f0efef;fill-opacity:1;fill-rule:nonzero;stroke:none"
         transform="matrix(0.13333333,0,0,-0.13333333,0,1066.6667)" />
      <path
         id="path102"
         d="m 2603.13,6099.54 -73.24,-1169.06 c 32.75,4.68 65.5,10.31 98.05,16.99 l 72.15,1151.58 -96.96,0.49"
         style="fill:#f0efef;fill-opacity:1;fill-rule:nonzero;stroke:none"
         transform="matrix(0.13333333,0,0,-0.13333333,0,1066.6667)" />
      <path
         id="path103"
         d="M 2377.25,6100.68 2330.3,4912.56 c 32.08,1.31 64.51,3.33 97.12,6.18 l 46.69,1181.45 -96.86,0.49"
         style="fill:#f0efef;fill-opacity:1;fill-rule:nonzero;stroke:none"
         transform="matrix(0.13333333,0,0,-0.13333333,0,1066.6667)" />
      <path
         id="path104"
         d="m 2842.29,6142.56 -1315.44,6.64 -0.23,-44.23 1315.45,-6.64 0.22,44.23"
         style="fill:#e0dfdd;fill-opacity:1;fill-rule:nonzero;stroke:none"
         transform="matrix(0.13333333,0,0,-0.13333333,0,1066.6667)" />
      <path
         id="path105"
         d="m 2816.72,6098.46 -4.02,-52.8 -824.28,56.98 z"
         style="fill:#b11a1d;fill-opacity:1;fill-rule:nonzero;stroke:none"
         transform="matrix(0.13333333,0,0,-0.13333333,0,1066.6667)" />
      <path
         id="path106"
         d="m 1824.28,4985.87 2.32,-44.13 c 30.46,-4.51 63.79,-8.96 99.52,-13.02 l -1.98,67.45 c -35.52,-4.4 -69.05,-7.75 -99.86,-10.3"
         style="fill:#b11a1d;fill-opacity:1;fill-rule:nonzero;stroke:none"
         transform="matrix(0.13333333,0,0,-0.13333333,0,1066.6667)" />
      <path
         id="path107"
         d="m 2227.47,5055.92 -0.73,-145.27 c 33.94,-0.11 68.54,0.47 103.56,1.91 l 7.07,178.93 c -36.27,-13.36 -73.09,-25.16 -109.9,-35.57"
         style="fill:#b11a1d;fill-opacity:1;fill-rule:nonzero;stroke:none"
         transform="matrix(0.13333333,0,0,-0.13333333,0,1066.6667)" />
      <path
         id="path108"
         d="m 1727.67,4979.79 c -59.29,-2.54 -95.17,-1.79 -95.17,-1.79 0,0 35.44,-8.8 96.31,-20.03 l -1.14,21.82"
         style="fill:#b11a1d;fill-opacity:1;fill-rule:nonzero;stroke:none"
         transform="matrix(0.13333333,0,0,-0.13333333,0,1066.6667)" />
      <path
         id="path109"
         d="m 2020.56,5010.14 2.67,-90.83 c 34.23,-2.74 69.91,-4.97 106.72,-6.49 l 0.6,118.68 c -37.4,-8.35 -74.26,-15.4 -109.99,-21.36"
         style="fill:#b11a1d;fill-opacity:1;fill-rule:nonzero;stroke:none"
         transform="matrix(0.13333333,0,0,-0.13333333,0,1066.6667)" />
      <path
         id="path110"
         d="m 2648.28,5272.06 -20.34,-324.59 c 34.63,7.1 69.05,15.38 103.05,24.99 l 34.31,450.67 c -30.05,-57.44 -70.04,-107.48 -117.02,-151.07"
         style="fill:#b11a1d;fill-opacity:1;fill-rule:nonzero;stroke:none"
         transform="matrix(0.13333333,0,0,-0.13333333,0,1066.6667)" />
      <path
         id="path111"
         d="m 2435.86,5132.61 -8.44,-213.87 c 34.03,2.97 68.25,6.84 102.47,11.74 l 16.48,263.06 c -35.03,-22.59 -72.11,-42.82 -110.51,-60.93"
         style="fill:#b11a1d;fill-opacity:1;fill-rule:nonzero;stroke:none"
         transform="matrix(0.13333333,0,0,-0.13333333,0,1066.6667)" />
      <path
         id="path112"
         d="m 2130.55,5031.5 -0.6,-118.68 c 31.51,-1.29 63.84,-2.06 96.79,-2.17 l 0.73,145.27 c -32.44,-9.17 -64.88,-17.27 -96.92,-24.42"
         style="fill:#dfdddd;fill-opacity:1;fill-rule:nonzero;stroke:none"
         transform="matrix(0.13333333,0,0,-0.13333333,0,1066.6667)" />
      <path
         id="path113"
         d="m 1727.67,4979.79 1.14,-21.82 c 27.66,-5.1 60.57,-10.71 97.79,-16.23 l -2.32,44.13 c -36.44,-3.01 -69.05,-4.91 -96.61,-6.08"
         style="fill:#dfdddd;fill-opacity:1;fill-rule:nonzero;stroke:none"
         transform="matrix(0.13333333,0,0,-0.13333333,0,1066.6667)" />
      <path
         id="path114"
         d="m 1924.14,4996.17 1.98,-67.45 c 30.72,-3.5 63.2,-6.7 97.11,-9.41 l -2.67,90.83 c -33.3,-5.55 -65.6,-10.16 -96.42,-13.97"
         style="fill:#dfdddd;fill-opacity:1;fill-rule:nonzero;stroke:none"
         transform="matrix(0.13333333,0,0,-0.13333333,0,1066.6667)" />
      <path
         id="path115"
         d="m 2546.37,5193.54 -16.48,-263.06 c 32.75,4.68 65.5,10.31 98.05,16.99 l 20.34,324.59 c -31.17,-28.93 -65.42,-55 -101.91,-78.52"
         style="fill:#dfdddd;fill-opacity:1;fill-rule:nonzero;stroke:none"
         transform="matrix(0.13333333,0,0,-0.13333333,0,1066.6667)" />
      <path
         id="path116"
         d="m 2337.37,5091.49 -7.07,-178.93 c 32.08,1.31 64.51,3.33 97.12,6.18 l 8.44,213.87 c -32.07,-15.13 -65.04,-28.79 -98.49,-41.12"
         style="fill:#dfdddd;fill-opacity:1;fill-rule:nonzero;stroke:none"
         transform="matrix(0.13333333,0,0,-0.13333333,0,1066.6667)" />
      <path
         id="path117"
         d="m 9343.38,3350.18 -42.9,-63.01 -66.33,-12.31 -4.69,-15.19 18.62,-6.22 -52.31,-25.76 -19.55,-42.72 31.37,-53.4 60.1,-23.38 50.7,37.1 30.26,67.77 62.47,83.79 -67.74,53.33"
         style="fill:#7b4f34;fill-opacity:1;fill-rule:nonzero;stroke:none"
         transform="matrix(0.13333333,0,0,-0.13333333,0,1066.6667)" />
      <path
         id="path118"
         d="m 9293.3,3358.24 447.47,610.57 -49.45,294.82 280.62,132.43 105.16,-511.99 -50.5,-121.17 -614.97,-537.12 -118.33,132.46"
         style="fill:#eec75a;fill-opacity:1;fill-rule:nonzero;stroke:none"
         transform="matrix(0.13333333,0,0,-0.13333333,0,1066.6667)" />
      <path
         id="path119"
         d="m 6511.12,5733.66 c -7.87,3.48 -17.44,0.94 -24.11,-4.51 -6.67,-5.44 -10.87,-13.33 -14.04,-21.33 -6.08,-15.34 -9,-31.93 -8.53,-48.43 l 3.16,-5.17 c 3.75,15.35 17.09,26.03 28.11,37.34 11.04,11.3 20.89,27.28 15.41,42.1"
         style="fill:#a7cfd8;fill-opacity:1;fill-rule:nonzero;stroke:none"
         transform="matrix(0.13333333,0,0,-0.13333333,0,1066.6667)" />
      <path
         id="path120"
         d="m 6594.17,5673.98 c -11.89,4.19 -24.96,3.44 -37.39,1.32 -23.82,-4.08 -46.8,-13.06 -67.07,-26.22 l -4.07,-7.87 c 22.06,6.98 45.57,-1.56 68.12,-6.75 22.55,-5.19 50.05,-5.35 64.41,12.79 -1.64,12.5 -12.12,22.54 -24,26.73"
         style="fill:#a7cfd8;fill-opacity:1;fill-rule:nonzero;stroke:none"
         transform="matrix(0.13333333,0,0,-0.13333333,0,1066.6667)" />
      <path
         id="path121"
         d="m 6387.52,5676.38 c -5.41,5.51 -10.66,12.8 -9.27,19.36 0.71,3.39 3.19,5.95 6.19,7.5 7.85,4.04 18.92,1.46 27.55,-4.31 8.64,-5.76 15.26,-14.21 21.08,-22.75 5.32,-7.83 10.65,-16.08 14.65,-24.48 5.82,-12.2 -4.4,-7.42 -13.56,-4.42 -17.11,5.59 -33.53,15.74 -46.64,29.1"
         style="fill:#a7cfd8;fill-opacity:1;fill-rule:nonzero;stroke:none"
         transform="matrix(0.13333333,0,0,-0.13333333,0,1066.6667)" />
    </g>
  </g>
</svg>
